M48
;DRILL file {KiCad (2016-01-16 BZR 6488, Git a9216b9)-product} date 1/31/2016 10:36:21 PM
;FORMAT={-:-/ absolute / inch / decimal}
FMAT,2
INCH,TZ
T1C0.016
T2C0.031
T3C0.039
T4C0.040
%
G90
G05
M72
T1
X0.2867Y1.4493
X0.4065Y1.5945
X0.4097Y0.5163
X0.9953Y1.56
X1.3725Y0.5223
X1.4084Y0.5469
X1.5648Y1.5114
X1.5702Y0.8565
X1.5802Y0.729
X1.68Y0.8419
T2
X0.6594Y0.4331
X0.6594Y0.3346
X1.2894Y1.6339
X1.2894Y1.5354
T3
X0.9843Y1.3795
X0.9843Y1.2795
X0.9843Y1.1795
T4
X0.1575Y1.2844
X0.1575Y1.1844
X0.1575Y1.0844
X0.1575Y0.9844
X0.1575Y0.8844
X0.1575Y0.7844
X0.1575Y0.6844
X0.3496Y0.7398
X0.3496Y0.6398
X0.4496Y0.7398
X0.4496Y0.6398
X0.5496Y0.7398
X0.5496Y0.6398
X0.6496Y0.7398
X0.6496Y0.6398
X0.6841Y1.811
X0.6841Y0.1575
X0.7841Y1.811
X0.7841Y0.1575
X0.8841Y1.811
X0.8841Y0.1575
X0.935Y0.7807
X0.935Y0.6807
X0.935Y0.5807
X0.9841Y1.811
X0.9841Y0.1575
X1.035Y0.7807
X1.035Y0.6807
X1.035Y0.5807
X1.0841Y1.811
X1.0841Y0.1575
X1.1841Y1.811
X1.1841Y0.1575
X1.2841Y1.811
X1.2841Y0.1575
X1.4634Y0.1886
X1.4634Y0.0886
X1.5634Y0.1886
X1.5634Y0.0886
X1.6634Y0.1886
X1.6634Y0.0886
X1.8159Y1.2844
X1.8159Y1.1844
X1.8159Y1.0844
X1.8159Y0.9844
X1.8159Y0.8844
X1.8159Y0.7844
X1.8159Y0.6844
T0
M30
