G04 #@! TF.FileFunction,Copper,L1,Top,Signal*
%FSLAX46Y46*%
G04 Gerber Fmt 4.6, Leading zero omitted, Abs format (unit mm)*
G04 Created by KiCad (PCBNEW (2016-01-16 BZR 6488, Git a9216b9)-product) date 1/31/2016 10:30:37 PM*
%MOMM*%
G01*
G04 APERTURE LIST*
%ADD10C,0.100000*%
%ADD11R,1.727200X1.727200*%
%ADD12O,1.727200X1.727200*%
%ADD13R,1.300000X1.300000*%
%ADD14C,1.300000*%
%ADD15R,1.250000X1.000000*%
%ADD16R,1.000000X1.250000*%
%ADD17O,3.014980X1.506220*%
%ADD18R,1.500000X1.000000*%
%ADD19R,2.032000X1.727200*%
%ADD20O,2.032000X1.727200*%
%ADD21R,1.727200X2.032000*%
%ADD22O,1.727200X2.032000*%
%ADD23R,1.000000X1.400000*%
%ADD24C,0.600000*%
%ADD25C,0.400000*%
%ADD26C,0.250000*%
G04 APERTURE END LIST*
D10*
D11*
X131500000Y-108750000D03*
D12*
X131500000Y-106210000D03*
X128960000Y-108750000D03*
X128960000Y-106210000D03*
X126420000Y-108750000D03*
X126420000Y-106210000D03*
X123880000Y-108750000D03*
X123880000Y-106210000D03*
D13*
X131750000Y-114000000D03*
D14*
X131750000Y-116500000D03*
D15*
X129250000Y-86250000D03*
X129250000Y-84250000D03*
X129500000Y-101750000D03*
X129500000Y-99750000D03*
X129250000Y-117250000D03*
X129250000Y-115250000D03*
X135000000Y-86500000D03*
X135000000Y-84500000D03*
X135000000Y-102000000D03*
X135000000Y-100000000D03*
X134750000Y-117500000D03*
X134750000Y-115500000D03*
X150500000Y-86250000D03*
X150500000Y-84250000D03*
D16*
X156296000Y-95968800D03*
X154296000Y-95968800D03*
D15*
X150500000Y-117250000D03*
X150500000Y-115250000D03*
D13*
X147750000Y-83500000D03*
D14*
X147750000Y-86000000D03*
D11*
X138750000Y-110250000D03*
D12*
X141290000Y-110250000D03*
X138750000Y-107710000D03*
X141290000Y-107710000D03*
X138750000Y-105170000D03*
X141290000Y-105170000D03*
D11*
X157250000Y-122750000D03*
D12*
X157250000Y-120210000D03*
X154710000Y-122750000D03*
X154710000Y-120210000D03*
X152170000Y-122750000D03*
X152170000Y-120210000D03*
D17*
X140000000Y-95040000D03*
X140000000Y-92500000D03*
X140000000Y-89960000D03*
D18*
X126700000Y-84500000D03*
X126700000Y-86100000D03*
X126700000Y-82900000D03*
X121800000Y-82900000D03*
X121800000Y-84500000D03*
X121800000Y-86100000D03*
X126950000Y-100000000D03*
X126950000Y-101600000D03*
X126950000Y-98400000D03*
X122050000Y-98400000D03*
X122050000Y-100000000D03*
X122050000Y-101600000D03*
X126950000Y-115500000D03*
X126950000Y-117100000D03*
X126950000Y-113900000D03*
X122050000Y-113900000D03*
X122050000Y-115500000D03*
X122050000Y-117100000D03*
X142450000Y-84500000D03*
X142450000Y-86100000D03*
X142450000Y-82900000D03*
X137550000Y-82900000D03*
X137550000Y-84500000D03*
X137550000Y-86100000D03*
X142450000Y-100000000D03*
X142450000Y-101600000D03*
X142450000Y-98400000D03*
X137550000Y-98400000D03*
X137550000Y-100000000D03*
X137550000Y-101600000D03*
X142450000Y-115500000D03*
X142450000Y-117100000D03*
X142450000Y-113900000D03*
X137550000Y-113900000D03*
X137550000Y-115500000D03*
X137550000Y-117100000D03*
X157950000Y-84500000D03*
X157950000Y-86100000D03*
X157950000Y-82900000D03*
X153050000Y-82900000D03*
X153050000Y-84500000D03*
X153050000Y-86100000D03*
X157950000Y-100000000D03*
X157950000Y-101600000D03*
X157950000Y-98400000D03*
X153050000Y-98400000D03*
X153050000Y-100000000D03*
X153050000Y-101600000D03*
X157950000Y-115500000D03*
X157950000Y-117100000D03*
X157950000Y-113900000D03*
X153050000Y-113900000D03*
X153050000Y-115500000D03*
X153050000Y-117100000D03*
D19*
X161125000Y-92375000D03*
D20*
X161125000Y-94915000D03*
X161125000Y-97455000D03*
X161125000Y-99995000D03*
X161125000Y-102535000D03*
X161125000Y-105075000D03*
X161125000Y-107615000D03*
D21*
X132375000Y-79000000D03*
D22*
X134915000Y-79000000D03*
X137455000Y-79000000D03*
X139995000Y-79000000D03*
X142535000Y-79000000D03*
X145075000Y-79000000D03*
X147615000Y-79000000D03*
D21*
X132375000Y-121000000D03*
D22*
X134915000Y-121000000D03*
X137455000Y-121000000D03*
X139995000Y-121000000D03*
X142535000Y-121000000D03*
X145075000Y-121000000D03*
X147615000Y-121000000D03*
D19*
X119000000Y-92375000D03*
D20*
X119000000Y-94915000D03*
X119000000Y-97455000D03*
X119000000Y-99995000D03*
X119000000Y-102535000D03*
X119000000Y-105075000D03*
X119000000Y-107615000D03*
D23*
X149250000Y-109000000D03*
X155250000Y-109000000D03*
X121500000Y-121500000D03*
X127500000Y-121500000D03*
D24*
X157671200Y-103616000D03*
X122282500Y-88187500D03*
X155137300Y-106484400D03*
X150774000Y-111109100D03*
X149860600Y-111734400D03*
X125325000Y-84500000D03*
X125405300Y-111885600D03*
X140279400Y-85375100D03*
X154881900Y-103246100D03*
X154746800Y-86609200D03*
D25*
X137550000Y-86100000D02*
X136199700Y-86100000D01*
X137550000Y-101600000D02*
X136199700Y-101600000D01*
X153050000Y-117100000D02*
X151699700Y-117100000D01*
X137550000Y-101600000D02*
X138900300Y-101600000D01*
X141290000Y-105170000D02*
X141290000Y-103706100D01*
X151549700Y-118125800D02*
X151549700Y-117250000D01*
X152170000Y-118746100D02*
X151549700Y-118125800D01*
X150500000Y-117250000D02*
X151549700Y-117250000D01*
X151549700Y-117250000D02*
X151699700Y-117100000D01*
X152170000Y-120210000D02*
X152170000Y-118746100D01*
X122050000Y-101600000D02*
X121374900Y-101600000D01*
X121374900Y-101600000D02*
X120699700Y-101600000D01*
X120658100Y-96573100D02*
X119000000Y-94915000D01*
X120658100Y-100883200D02*
X120658100Y-96573100D01*
X121374900Y-101600000D02*
X120658100Y-100883200D01*
X137550000Y-117100000D02*
X138900300Y-117100000D01*
X141006400Y-103706100D02*
X141290000Y-103706100D01*
X138900300Y-101600000D02*
X141006400Y-103706100D01*
X149250000Y-109000000D02*
X149250000Y-110300300D01*
X142275300Y-118200300D02*
X145075000Y-121000000D01*
X140000600Y-118200300D02*
X142275300Y-118200300D01*
X138900300Y-117100000D02*
X140000600Y-118200300D01*
X150500000Y-117250000D02*
X149274700Y-117250000D01*
X149024700Y-86000000D02*
X149274700Y-86250000D01*
X147750000Y-86000000D02*
X149024700Y-86000000D01*
X153050000Y-101600000D02*
X154400300Y-101600000D01*
X135799700Y-102000000D02*
X135000000Y-102000000D01*
X136199700Y-101600000D02*
X135799700Y-102000000D01*
X129500000Y-101750000D02*
X130725300Y-101750000D01*
X136199700Y-86100000D02*
X135799700Y-86500000D01*
X135799700Y-90968400D02*
X135799700Y-86500000D01*
X139871300Y-95040000D02*
X135799700Y-90968400D01*
X140000000Y-95040000D02*
X139871300Y-95040000D01*
X135799700Y-86500000D02*
X135000000Y-86500000D01*
X130725300Y-86500000D02*
X130475300Y-86250000D01*
X135000000Y-86500000D02*
X130725300Y-86500000D01*
X129250000Y-86250000D02*
X130475300Y-86250000D01*
X131500000Y-106210000D02*
X131500000Y-104746100D01*
X131500000Y-102000000D02*
X131500000Y-104746100D01*
X135000000Y-102000000D02*
X131500000Y-102000000D01*
X130975300Y-102000000D02*
X130725300Y-101750000D01*
X131500000Y-102000000D02*
X130975300Y-102000000D01*
X120699700Y-103375300D02*
X119000000Y-105075000D01*
X120699700Y-101600000D02*
X120699700Y-103375300D01*
X134915000Y-120558300D02*
X134915000Y-119383700D01*
X134915000Y-120558300D02*
X134915000Y-121000000D01*
X137550000Y-117100000D02*
X136199700Y-117100000D01*
X135575900Y-117723800D02*
X136199700Y-117100000D01*
X134973800Y-117723800D02*
X135575900Y-117723800D01*
X134973800Y-119324900D02*
X134973800Y-117723800D01*
X134915000Y-119383700D02*
X134973800Y-119324900D01*
X134973800Y-117723800D02*
X134750000Y-117500000D01*
X136571700Y-77343300D02*
X134915000Y-79000000D01*
X143418300Y-77343300D02*
X136571700Y-77343300D01*
X145075000Y-79000000D02*
X143418300Y-77343300D01*
X134915000Y-121000000D02*
X134915000Y-122616300D01*
X131225300Y-116500000D02*
X130475300Y-117250000D01*
X131750000Y-116500000D02*
X131225300Y-116500000D01*
X129539700Y-122800400D02*
X130007500Y-122332600D01*
X123900700Y-122800400D02*
X129539700Y-122800400D01*
X122600300Y-121500000D02*
X123900700Y-122800400D01*
X130291200Y-122616300D02*
X134915000Y-122616300D01*
X130007500Y-122332600D02*
X130291200Y-122616300D01*
X130007500Y-122332600D02*
X130007500Y-117250000D01*
X129250000Y-117250000D02*
X130007500Y-117250000D01*
X130007500Y-117250000D02*
X130475300Y-117250000D01*
X148942200Y-110608100D02*
X149250000Y-110300300D01*
X148942200Y-117132800D02*
X148942200Y-110608100D01*
X145075000Y-121000000D02*
X148942200Y-117132800D01*
X149157500Y-117132800D02*
X149274700Y-117250000D01*
X148942200Y-117132800D02*
X149157500Y-117132800D01*
X154400300Y-101600000D02*
X155572100Y-101600000D01*
X121500000Y-121500000D02*
X122050200Y-121500000D01*
X122050200Y-121500000D02*
X122600300Y-121500000D01*
X149887400Y-86250000D02*
X149274700Y-86250000D01*
X149887400Y-86250000D02*
X150500000Y-86250000D01*
X151549700Y-86250000D02*
X151699700Y-86100000D01*
X150500000Y-86250000D02*
X151549700Y-86250000D01*
X149250000Y-109000000D02*
X150350300Y-109000000D01*
X155572100Y-96692700D02*
X156296000Y-95968800D01*
X155572100Y-101600000D02*
X155572100Y-96692700D01*
X155808300Y-101836200D02*
X155808300Y-103616000D01*
X155572100Y-101600000D02*
X155808300Y-101836200D01*
X150350300Y-108999900D02*
X150350300Y-109000000D01*
X150424400Y-108999900D02*
X150350300Y-108999900D01*
X155808300Y-103616000D02*
X150424400Y-108999900D01*
X155808300Y-103616000D02*
X157671200Y-103616000D01*
X122050000Y-121499800D02*
X122050000Y-117100000D01*
X122050200Y-121500000D02*
X122050000Y-121499800D01*
X117345600Y-106729400D02*
X119000000Y-105075000D01*
X117345600Y-113745900D02*
X117345600Y-106729400D01*
X120699700Y-117100000D02*
X117345600Y-113745900D01*
X122050000Y-117100000D02*
X120699700Y-117100000D01*
X123150300Y-87319700D02*
X123150300Y-86100000D01*
X122282500Y-88187500D02*
X123150300Y-87319700D01*
X121800000Y-86100000D02*
X123150300Y-86100000D01*
X153050000Y-86100000D02*
X152374900Y-86100000D01*
X152374900Y-86100000D02*
X151699700Y-86100000D01*
X152374900Y-92047700D02*
X156296000Y-95968800D01*
X152374900Y-86100000D02*
X152374900Y-92047700D01*
X153050000Y-84500000D02*
X154400300Y-84500000D01*
X120449700Y-89461400D02*
X119000000Y-90911100D01*
X120449700Y-84500000D02*
X120449700Y-89461400D01*
X119000000Y-92375000D02*
X119000000Y-90911100D01*
X137550000Y-84500000D02*
X138700200Y-84500000D01*
X145899700Y-82900000D02*
X146499700Y-83500000D01*
X142450000Y-82900000D02*
X145899700Y-82900000D01*
X149274700Y-83774400D02*
X149000300Y-83500000D01*
X149274700Y-84250000D02*
X149274700Y-83774400D01*
X147750000Y-83500000D02*
X149000300Y-83500000D01*
X149887400Y-84250000D02*
X149274700Y-84250000D01*
X132375000Y-79000000D02*
X132375000Y-80616300D01*
X135000000Y-84500000D02*
X135000000Y-84050000D01*
X135000000Y-84050000D02*
X135000000Y-83399700D01*
X135749700Y-84050000D02*
X136199700Y-84500000D01*
X135000000Y-84050000D02*
X135749700Y-84050000D01*
X137550000Y-84500000D02*
X136199700Y-84500000D01*
X137550000Y-115500000D02*
X138900300Y-115500000D01*
X142450000Y-82900000D02*
X141099700Y-82900000D01*
X154400300Y-97298400D02*
X154296000Y-97194100D01*
X154400300Y-100000000D02*
X154400300Y-97298400D01*
X153050000Y-100000000D02*
X154400300Y-100000000D01*
X154296000Y-95968800D02*
X154296000Y-97194100D01*
X121124900Y-84500000D02*
X120449700Y-84500000D01*
X139200000Y-87806600D02*
X140000000Y-88606600D01*
X139200000Y-84799700D02*
X139200000Y-87806600D01*
X138900300Y-84500000D02*
X139200000Y-84799700D01*
X138700200Y-84500000D02*
X138900300Y-84500000D01*
X139200000Y-84799700D02*
X141099700Y-82900000D01*
X149887400Y-84250000D02*
X150500000Y-84250000D01*
X151449700Y-84250000D02*
X151699700Y-84500000D01*
X150500000Y-84250000D02*
X151449700Y-84250000D01*
X153050000Y-84500000D02*
X151699700Y-84500000D01*
X122050000Y-100000000D02*
X123400300Y-100000000D01*
X130975300Y-100000000D02*
X130725300Y-99750000D01*
X135000000Y-100000000D02*
X130975300Y-100000000D01*
X129500000Y-99750000D02*
X130725300Y-99750000D01*
X128550000Y-98649700D02*
X129500000Y-98649700D01*
X128300300Y-98400000D02*
X128550000Y-98649700D01*
X126950000Y-98400000D02*
X128300300Y-98400000D01*
X129500000Y-99750000D02*
X129500000Y-98649700D01*
X135000000Y-100000000D02*
X137550000Y-100000000D01*
X147750000Y-83500000D02*
X146699800Y-83500000D01*
X146699800Y-83500000D02*
X146499700Y-83500000D01*
X146499700Y-89272800D02*
X153195700Y-95968800D01*
X146499700Y-83500000D02*
X146499700Y-89272800D01*
X154296000Y-95968800D02*
X153195700Y-95968800D01*
X157950000Y-98400000D02*
X159300300Y-98400000D01*
X161162600Y-92412600D02*
X161162600Y-92643700D01*
X161125000Y-92375000D02*
X161162600Y-92412600D01*
X159300300Y-94506000D02*
X159300300Y-98400000D01*
X161162600Y-92643700D02*
X159300300Y-94506000D01*
X137550000Y-115500000D02*
X134750000Y-115500000D01*
X126950000Y-113900000D02*
X128100200Y-113900000D01*
X129250000Y-115250000D02*
X129250000Y-114149700D01*
X129000300Y-113900000D02*
X129250000Y-114149700D01*
X128100200Y-113900000D02*
X129000300Y-113900000D01*
X130650100Y-112749600D02*
X129250000Y-114149700D01*
X133099900Y-112749600D02*
X130650100Y-112749600D01*
X134750000Y-114399700D02*
X133099900Y-112749600D01*
X134750000Y-115500000D02*
X134750000Y-114949800D01*
X134750000Y-114949800D02*
X134750000Y-114399700D01*
X133451000Y-118307700D02*
X132375000Y-119383700D01*
X133451000Y-116248800D02*
X133451000Y-118307700D01*
X134750000Y-114949800D02*
X133451000Y-116248800D01*
X132375000Y-121000000D02*
X132375000Y-119383700D01*
X140500300Y-113900000D02*
X142450000Y-113900000D01*
X138900300Y-115500000D02*
X140500300Y-113900000D01*
X138900300Y-100184600D02*
X138900300Y-100000000D01*
X142789800Y-104074100D02*
X138900300Y-100184600D01*
X142789800Y-113560200D02*
X142789800Y-104074100D01*
X142450000Y-113900000D02*
X142789800Y-113560200D01*
X137550000Y-100000000D02*
X138225200Y-100000000D01*
X138225200Y-100000000D02*
X138900300Y-100000000D01*
X140000000Y-89960000D02*
X140000000Y-89283300D01*
X140000000Y-89283300D02*
X140000000Y-88606600D01*
X141099700Y-97299700D02*
X141099700Y-98400000D01*
X142112400Y-96287000D02*
X141099700Y-97299700D01*
X142112400Y-91395700D02*
X142112400Y-96287000D01*
X140000000Y-89283300D02*
X142112400Y-91395700D01*
X142450000Y-98400000D02*
X141099700Y-98400000D01*
X140500300Y-98400000D02*
X141099700Y-98400000D01*
X138900300Y-100000000D02*
X140500300Y-98400000D01*
X157250000Y-120210000D02*
X157250000Y-118746100D01*
X162767400Y-105972600D02*
X161125000Y-107615000D01*
X162767400Y-94248500D02*
X162767400Y-105972600D01*
X161162600Y-92643700D02*
X162767400Y-94248500D01*
X158464900Y-118746100D02*
X157250000Y-118746100D01*
X161125000Y-116086000D02*
X158464900Y-118746100D01*
X161125000Y-107615000D02*
X161125000Y-116086000D01*
X156000300Y-82900000D02*
X157950000Y-82900000D01*
X154400300Y-84500000D02*
X156000300Y-82900000D01*
X159300300Y-89086400D02*
X161125000Y-90911100D01*
X159300300Y-82900000D02*
X159300300Y-89086400D01*
X157950000Y-82900000D02*
X159300300Y-82900000D01*
X161125000Y-92375000D02*
X161125000Y-90911100D01*
X119000000Y-113800300D02*
X120699700Y-115500000D01*
X119000000Y-107615000D02*
X119000000Y-113800300D01*
X122050000Y-115500000D02*
X120699700Y-115500000D01*
X123400300Y-96775300D02*
X123400300Y-100000000D01*
X119000000Y-92375000D02*
X123400300Y-96775300D01*
X123400300Y-103214700D02*
X119000000Y-107615000D01*
X123400300Y-100000000D02*
X123400300Y-103214700D01*
X121124900Y-84500000D02*
X121800000Y-84500000D01*
X121800000Y-84500000D02*
X123150300Y-84500000D01*
X124750300Y-82900000D02*
X126700000Y-82900000D01*
X123150300Y-84500000D02*
X124750300Y-82900000D01*
X128300000Y-83149700D02*
X129250000Y-83149700D01*
X128050300Y-82900000D02*
X128300000Y-83149700D01*
X126700000Y-82900000D02*
X128050300Y-82900000D01*
X129250000Y-84250000D02*
X129250000Y-83149700D01*
X132375000Y-81512800D02*
X132375000Y-80616300D01*
X133113100Y-81512800D02*
X132375000Y-81512800D01*
X135000000Y-83399700D02*
X133113100Y-81512800D01*
X130886900Y-81512800D02*
X129250000Y-83149700D01*
X132375000Y-81512800D02*
X130886900Y-81512800D01*
X151975300Y-115500000D02*
X151725300Y-115250000D01*
X153050000Y-115500000D02*
X151975300Y-115500000D01*
X150500000Y-115250000D02*
X151725300Y-115250000D01*
X153050000Y-115500000D02*
X154400300Y-115500000D01*
X155112700Y-115500000D02*
X154400300Y-115500000D01*
X156599700Y-114013000D02*
X155112700Y-115500000D01*
X156599700Y-113900000D02*
X156599700Y-114013000D01*
X155112700Y-116608800D02*
X157250000Y-118746100D01*
X155112700Y-115500000D02*
X155112700Y-116608800D01*
X157950000Y-113900000D02*
X156599700Y-113900000D01*
D26*
X155137300Y-106745800D02*
X150774000Y-111109100D01*
X155137300Y-106484400D02*
X155137300Y-106745800D01*
X134188900Y-110250000D02*
X132688900Y-108750000D01*
X138750000Y-110250000D02*
X134188900Y-110250000D01*
X131500000Y-108750000D02*
X132688900Y-108750000D01*
X127500000Y-121500000D02*
X126674700Y-121500000D01*
X126420000Y-108750000D02*
X126420000Y-109938900D01*
X124752300Y-119577600D02*
X126674700Y-121500000D01*
X124752300Y-111606600D02*
X124752300Y-119577600D01*
X126420000Y-109938900D02*
X124752300Y-111606600D01*
X127608900Y-106581600D02*
X127608900Y-106210000D01*
X128426200Y-107398900D02*
X127608900Y-106581600D01*
X129297200Y-107398900D02*
X128426200Y-107398900D01*
X130230000Y-108331700D02*
X129297200Y-107398900D01*
X130230000Y-109698600D02*
X130230000Y-108331700D01*
X132015800Y-111484400D02*
X130230000Y-109698600D01*
X139759100Y-111484400D02*
X132015800Y-111484400D01*
X139939000Y-111304500D02*
X139759100Y-111484400D01*
X139939000Y-107176400D02*
X139939000Y-111304500D01*
X139121500Y-106358900D02*
X139939000Y-107176400D01*
X138750000Y-106358900D02*
X139121500Y-106358900D01*
X138750000Y-105170000D02*
X138750000Y-106358900D01*
X126420000Y-106210000D02*
X127608900Y-106210000D01*
X138643900Y-79520100D02*
X138643900Y-79000000D01*
X139480400Y-80356600D02*
X138643900Y-79520100D01*
X140509600Y-80356600D02*
X139480400Y-80356600D01*
X141346100Y-79520100D02*
X140509600Y-80356600D01*
X141346100Y-79000000D02*
X141346100Y-79520100D01*
X142535000Y-79000000D02*
X141346100Y-79000000D01*
X137455000Y-79000000D02*
X138643900Y-79000000D01*
X141346100Y-120479900D02*
X141346100Y-121000000D01*
X140505600Y-119639400D02*
X141346100Y-120479900D01*
X139484400Y-119639400D02*
X140505600Y-119639400D01*
X138643900Y-120479900D02*
X139484400Y-119639400D01*
X138643900Y-121000000D02*
X138643900Y-120479900D01*
X137455000Y-121000000D02*
X138643900Y-121000000D01*
X142535000Y-121000000D02*
X141346100Y-121000000D01*
X160606800Y-98643900D02*
X161125000Y-98643900D01*
X159745000Y-99505700D02*
X160606800Y-98643900D01*
X159745000Y-100486200D02*
X159745000Y-99505700D01*
X160604900Y-101346100D02*
X159745000Y-100486200D01*
X161125000Y-101346100D02*
X160604900Y-101346100D01*
X161125000Y-102535000D02*
X161125000Y-101346100D01*
X161125000Y-97455000D02*
X161125000Y-98643900D01*
X155250000Y-109000000D02*
X154424700Y-109000000D01*
X151690300Y-111734400D02*
X149860600Y-111734400D01*
X154424700Y-109000000D02*
X151690300Y-111734400D01*
X126700000Y-84500000D02*
X125325000Y-84500000D01*
X125624700Y-99094400D02*
X125624700Y-86100000D01*
X126502200Y-99971900D02*
X125624700Y-99094400D01*
X126922000Y-99971900D02*
X126502200Y-99971900D01*
X126922000Y-99971900D02*
X126950000Y-100000000D01*
X126700000Y-86100000D02*
X125624700Y-86100000D01*
X126767000Y-115683000D02*
X126812800Y-115637200D01*
X126812800Y-115637200D02*
X126950000Y-115500000D01*
X125202900Y-102271800D02*
X125874700Y-101600000D01*
X125202900Y-106696200D02*
X125202900Y-102271800D01*
X125905700Y-107399000D02*
X125202900Y-106696200D01*
X126772300Y-107399000D02*
X125905700Y-107399000D01*
X127609000Y-108235700D02*
X126772300Y-107399000D01*
X127609000Y-110940200D02*
X127609000Y-108235700D01*
X125674600Y-112874600D02*
X127609000Y-110940200D01*
X125674600Y-114633900D02*
X125674600Y-112874600D01*
X126677900Y-115637200D02*
X125674600Y-114633900D01*
X126812800Y-115637200D02*
X126677900Y-115637200D01*
X126950000Y-101600000D02*
X125874700Y-101600000D01*
X142033000Y-84917300D02*
X142450000Y-84500000D01*
X126950000Y-117100000D02*
X125874700Y-117100000D01*
X125202700Y-112088200D02*
X125405300Y-111885600D01*
X125202700Y-116428000D02*
X125202700Y-112088200D01*
X125874700Y-117100000D02*
X125202700Y-116428000D01*
X140737200Y-84917300D02*
X140279400Y-85375100D01*
X142033000Y-84917300D02*
X140737200Y-84917300D01*
X143726700Y-86301400D02*
X143525300Y-86100000D01*
X143726700Y-99798600D02*
X143726700Y-86301400D01*
X143525300Y-100000000D02*
X143726700Y-99798600D01*
X142450000Y-100000000D02*
X143525300Y-100000000D01*
X142450000Y-86100000D02*
X143525300Y-86100000D01*
X142230000Y-115720000D02*
X142350000Y-115600000D01*
X142350000Y-115600000D02*
X142450000Y-115500000D01*
X143741900Y-101816600D02*
X143525300Y-101600000D01*
X143741900Y-114637900D02*
X143741900Y-101816600D01*
X142779800Y-115600000D02*
X143741900Y-114637900D01*
X142350000Y-115600000D02*
X142779800Y-115600000D01*
X142450000Y-101600000D02*
X143525300Y-101600000D01*
X142450000Y-117100000D02*
X142700000Y-117100000D01*
X157950000Y-84500000D02*
X156874700Y-84500000D01*
X154765500Y-86609200D02*
X154746800Y-86609200D01*
X156874700Y-84500000D02*
X154765500Y-86609200D01*
X152969400Y-103246100D02*
X154881900Y-103246100D01*
X147947300Y-108268200D02*
X152969400Y-103246100D01*
X147947300Y-111852700D02*
X147947300Y-108268200D01*
X142700000Y-117100000D02*
X147947300Y-111852700D01*
X157673000Y-100277000D02*
X157811500Y-100138500D01*
X157811500Y-100138500D02*
X157950000Y-100000000D01*
X156874700Y-86925300D02*
X156874700Y-86100000D01*
X157345200Y-87395800D02*
X156874700Y-86925300D01*
X157345200Y-96914800D02*
X157345200Y-87395800D01*
X156674600Y-97585400D02*
X157345200Y-96914800D01*
X156674600Y-99143800D02*
X156674600Y-97585400D01*
X157669300Y-100138500D02*
X156674600Y-99143800D01*
X157811500Y-100138500D02*
X157669300Y-100138500D01*
X157950000Y-86100000D02*
X156874700Y-86100000D01*
X158375000Y-115075000D02*
X158162500Y-115287500D01*
X158162500Y-115287500D02*
X157950000Y-115500000D01*
X159225400Y-101800100D02*
X159025300Y-101600000D01*
X159225400Y-114677500D02*
X159225400Y-101800100D01*
X158615400Y-115287500D02*
X159225400Y-114677500D01*
X158162500Y-115287500D02*
X158615400Y-115287500D01*
X157950000Y-101600000D02*
X159025300Y-101600000D01*
M02*
