G04 #@! TF.FileFunction,Soldermask,Bot*
%FSLAX46Y46*%
G04 Gerber Fmt 4.6, Leading zero omitted, Abs format (unit mm)*
G04 Created by KiCad (PCBNEW (2016-01-16 BZR 6488, Git a9216b9)-product) date 1/31/2016 10:30:37 PM*
%MOMM*%
G01*
G04 APERTURE LIST*
%ADD10C,0.100000*%
%ADD11R,2.127200X2.127200*%
%ADD12O,2.127200X2.127200*%
%ADD13R,1.700000X1.700000*%
%ADD14C,1.700000*%
%ADD15R,0.900000X2.400000*%
%ADD16O,3.414980X1.906220*%
%ADD17R,2.432000X2.127200*%
%ADD18O,2.432000X2.127200*%
%ADD19R,2.127200X2.432000*%
%ADD20O,2.127200X2.432000*%
%ADD21R,1.600000X1.300000*%
%ADD22R,1.400000X1.400000*%
G04 APERTURE END LIST*
D10*
D11*
X131500000Y-108750000D03*
D12*
X131500000Y-106210000D03*
X128960000Y-108750000D03*
X128960000Y-106210000D03*
X126420000Y-108750000D03*
X126420000Y-106210000D03*
X123880000Y-108750000D03*
X123880000Y-106210000D03*
D13*
X131750000Y-114000000D03*
D14*
X131750000Y-116500000D03*
D13*
X147750000Y-83500000D03*
D14*
X147750000Y-86000000D03*
D11*
X138750000Y-110250000D03*
D12*
X141290000Y-110250000D03*
X138750000Y-107710000D03*
X141290000Y-107710000D03*
X138750000Y-105170000D03*
X141290000Y-105170000D03*
D15*
X146035000Y-108000000D03*
X147305000Y-108000000D03*
X148575000Y-108000000D03*
X149845000Y-108000000D03*
X151115000Y-108000000D03*
X152375000Y-108000000D03*
X153655000Y-108000000D03*
X154925000Y-108000000D03*
X156195000Y-108000000D03*
X157465000Y-108000000D03*
X157465000Y-116000000D03*
X156195000Y-116000000D03*
X154925000Y-116000000D03*
X153655000Y-116000000D03*
X152385000Y-116000000D03*
X151115000Y-116000000D03*
X149845000Y-116000000D03*
X148575000Y-116000000D03*
X147305000Y-116000000D03*
X146035000Y-116000000D03*
D11*
X157250000Y-122750000D03*
D12*
X157250000Y-120210000D03*
X154710000Y-122750000D03*
X154710000Y-120210000D03*
X152170000Y-122750000D03*
X152170000Y-120210000D03*
D16*
X140000000Y-95040000D03*
X140000000Y-92500000D03*
X140000000Y-89960000D03*
D17*
X161125000Y-92375000D03*
D18*
X161125000Y-94915000D03*
X161125000Y-97455000D03*
X161125000Y-99995000D03*
X161125000Y-102535000D03*
X161125000Y-105075000D03*
X161125000Y-107615000D03*
D19*
X132375000Y-79000000D03*
D20*
X134915000Y-79000000D03*
X137455000Y-79000000D03*
X139995000Y-79000000D03*
X142535000Y-79000000D03*
X145075000Y-79000000D03*
X147615000Y-79000000D03*
D19*
X132375000Y-121000000D03*
D20*
X134915000Y-121000000D03*
X137455000Y-121000000D03*
X139995000Y-121000000D03*
X142535000Y-121000000D03*
X145075000Y-121000000D03*
X147615000Y-121000000D03*
D17*
X119000000Y-92375000D03*
D18*
X119000000Y-94915000D03*
X119000000Y-97455000D03*
X119000000Y-99995000D03*
X119000000Y-102535000D03*
X119000000Y-105075000D03*
X119000000Y-107615000D03*
D21*
X130431000Y-102680000D03*
X132631000Y-102680000D03*
X132703000Y-100150000D03*
X130503000Y-100150000D03*
X132705000Y-97947500D03*
X130505000Y-97947500D03*
D22*
X148224000Y-91843900D03*
X146524000Y-91843900D03*
X148209000Y-94231500D03*
X146509000Y-94231500D03*
X148256000Y-96616500D03*
X146556000Y-96616500D03*
X148331000Y-99001600D03*
X146631000Y-99001600D03*
X148335000Y-101346000D03*
X146635000Y-101346000D03*
X148294000Y-103731000D03*
X146594000Y-103731000D03*
M02*
