G04 #@! TF.FileFunction,Legend,Bot*
%FSLAX46Y46*%
G04 Gerber Fmt 4.6, Leading zero omitted, Abs format (unit mm)*
G04 Created by KiCad (PCBNEW (2016-01-16 BZR 6488, Git a9216b9)-product) date 1/31/2016 10:30:37 PM*
%MOMM*%
G01*
G04 APERTURE LIST*
%ADD10C,0.100000*%
%ADD11C,0.300000*%
%ADD12C,0.150000*%
%ADD13C,0.200000*%
%ADD14C,0.152400*%
%ADD15R,2.127200X2.127200*%
%ADD16O,2.127200X2.127200*%
%ADD17R,1.700000X1.700000*%
%ADD18C,1.700000*%
%ADD19R,0.900000X2.400000*%
%ADD20O,3.414980X1.906220*%
%ADD21R,2.432000X2.127200*%
%ADD22O,2.432000X2.127200*%
%ADD23R,2.127200X2.432000*%
%ADD24O,2.127200X2.432000*%
%ADD25R,1.600000X1.300000*%
%ADD26R,1.400000X1.400000*%
G04 APERTURE END LIST*
D10*
D11*
X127854932Y-76612191D02*
X126997789Y-76612191D01*
X127426360Y-78112191D02*
X127426360Y-76612191D01*
X126497789Y-78112191D02*
X126497789Y-77112191D01*
X126497789Y-76612191D02*
X126569218Y-76683620D01*
X126497789Y-76755049D01*
X126426361Y-76683620D01*
X126497789Y-76612191D01*
X126497789Y-76755049D01*
X125783503Y-77112191D02*
X125783503Y-78112191D01*
X125783503Y-77255049D02*
X125712075Y-77183620D01*
X125569217Y-77112191D01*
X125354932Y-77112191D01*
X125212075Y-77183620D01*
X125140646Y-77326477D01*
X125140646Y-78112191D01*
X124569217Y-77112191D02*
X124212074Y-78112191D01*
X123854932Y-77112191D02*
X124212074Y-78112191D01*
X124354932Y-78469334D01*
X124426360Y-78540763D01*
X124569217Y-78612191D01*
X123283503Y-78112191D02*
X123283503Y-76612191D01*
X122712075Y-76612191D01*
X122569217Y-76683620D01*
X122497789Y-76755049D01*
X122426360Y-76897906D01*
X122426360Y-77112191D01*
X122497789Y-77255049D01*
X122569217Y-77326477D01*
X122712075Y-77397906D01*
X123283503Y-77397906D01*
X121783503Y-78112191D02*
X121783503Y-77112191D01*
X121783503Y-76612191D02*
X121854932Y-76683620D01*
X121783503Y-76755049D01*
X121712075Y-76683620D01*
X121783503Y-76612191D01*
X121783503Y-76755049D01*
X121212074Y-78112191D02*
X120426360Y-77112191D01*
X121212074Y-77112191D02*
X120426360Y-78112191D01*
X119283503Y-78040763D02*
X119426360Y-78112191D01*
X119712074Y-78112191D01*
X119854931Y-78040763D01*
X119926360Y-77897906D01*
X119926360Y-77326477D01*
X119854931Y-77183620D01*
X119712074Y-77112191D01*
X119426360Y-77112191D01*
X119283503Y-77183620D01*
X119212074Y-77326477D01*
X119212074Y-77469334D01*
X119926360Y-77612191D01*
X118354931Y-78112191D02*
X118497789Y-78040763D01*
X118569217Y-77897906D01*
X118569217Y-76612191D01*
X117854932Y-78040763D02*
X117712075Y-78112191D01*
X117426360Y-78112191D01*
X117283503Y-78040763D01*
X117212075Y-77897906D01*
X117212075Y-77826477D01*
X117283503Y-77683620D01*
X117426360Y-77612191D01*
X117640646Y-77612191D01*
X117783503Y-77540763D01*
X117854932Y-77397906D01*
X117854932Y-77326477D01*
X117783503Y-77183620D01*
X117640646Y-77112191D01*
X117426360Y-77112191D01*
X117283503Y-77183620D01*
X126640644Y-79012191D02*
X125712073Y-79012191D01*
X126212073Y-79583620D01*
X125997787Y-79583620D01*
X125854930Y-79655049D01*
X125783501Y-79726477D01*
X125712073Y-79869334D01*
X125712073Y-80226477D01*
X125783501Y-80369334D01*
X125854930Y-80440763D01*
X125997787Y-80512191D01*
X126426359Y-80512191D01*
X126569216Y-80440763D01*
X126640644Y-80369334D01*
X125212073Y-80512191D02*
X124426359Y-79512191D01*
X125212073Y-79512191D02*
X124426359Y-80512191D01*
X123997787Y-79012191D02*
X123069216Y-79012191D01*
X123569216Y-79583620D01*
X123354930Y-79583620D01*
X123212073Y-79655049D01*
X123140644Y-79726477D01*
X123069216Y-79869334D01*
X123069216Y-80226477D01*
X123140644Y-80369334D01*
X123212073Y-80440763D01*
X123354930Y-80512191D01*
X123783502Y-80512191D01*
X123926359Y-80440763D01*
X123997787Y-80369334D01*
X121426359Y-79512191D02*
X121069216Y-80512191D01*
X120712074Y-79512191D01*
X119854931Y-79012191D02*
X119712074Y-79012191D01*
X119569217Y-79083620D01*
X119497788Y-79155049D01*
X119426359Y-79297906D01*
X119354931Y-79583620D01*
X119354931Y-79940763D01*
X119426359Y-80226477D01*
X119497788Y-80369334D01*
X119569217Y-80440763D01*
X119712074Y-80512191D01*
X119854931Y-80512191D01*
X119997788Y-80440763D01*
X120069217Y-80369334D01*
X120140645Y-80226477D01*
X120212074Y-79940763D01*
X120212074Y-79583620D01*
X120140645Y-79297906D01*
X120069217Y-79155049D01*
X119997788Y-79083620D01*
X119854931Y-79012191D01*
X118712074Y-80369334D02*
X118640646Y-80440763D01*
X118712074Y-80512191D01*
X118783503Y-80440763D01*
X118712074Y-80369334D01*
X118712074Y-80512191D01*
X117212074Y-80512191D02*
X118069217Y-80512191D01*
X117640645Y-80512191D02*
X117640645Y-79012191D01*
X117783502Y-79226477D01*
X117926360Y-79369334D01*
X118069217Y-79440763D01*
X133640647Y-82912191D02*
X133640647Y-81412191D01*
X133140647Y-82483620D01*
X132640647Y-81412191D01*
X132640647Y-82912191D01*
X131926361Y-82912191D02*
X131926361Y-81912191D01*
X131926361Y-81412191D02*
X131997790Y-81483620D01*
X131926361Y-81555049D01*
X131854933Y-81483620D01*
X131926361Y-81412191D01*
X131926361Y-81555049D01*
X131212075Y-82912191D02*
X131212075Y-81412191D01*
X131069218Y-82340763D02*
X130640647Y-82912191D01*
X130640647Y-81912191D02*
X131212075Y-82483620D01*
X129426361Y-82840763D02*
X129569218Y-82912191D01*
X129854932Y-82912191D01*
X129997789Y-82840763D01*
X130069218Y-82697906D01*
X130069218Y-82126477D01*
X129997789Y-81983620D01*
X129854932Y-81912191D01*
X129569218Y-81912191D01*
X129426361Y-81983620D01*
X129354932Y-82126477D01*
X129354932Y-82269334D01*
X130069218Y-82412191D01*
X126712075Y-82912191D02*
X127212075Y-82197906D01*
X127569218Y-82912191D02*
X127569218Y-81412191D01*
X126997790Y-81412191D01*
X126854932Y-81483620D01*
X126783504Y-81555049D01*
X126712075Y-81697906D01*
X126712075Y-81912191D01*
X126783504Y-82055049D01*
X126854932Y-82126477D01*
X126997790Y-82197906D01*
X127569218Y-82197906D01*
X125854932Y-82912191D02*
X125997790Y-82840763D01*
X126069218Y-82769334D01*
X126140647Y-82626477D01*
X126140647Y-82197906D01*
X126069218Y-82055049D01*
X125997790Y-81983620D01*
X125854932Y-81912191D01*
X125640647Y-81912191D01*
X125497790Y-81983620D01*
X125426361Y-82055049D01*
X125354932Y-82197906D01*
X125354932Y-82626477D01*
X125426361Y-82769334D01*
X125497790Y-82840763D01*
X125640647Y-82912191D01*
X125854932Y-82912191D01*
X124069218Y-82840763D02*
X124212075Y-82912191D01*
X124497789Y-82912191D01*
X124640647Y-82840763D01*
X124712075Y-82769334D01*
X124783504Y-82626477D01*
X124783504Y-82197906D01*
X124712075Y-82055049D01*
X124640647Y-81983620D01*
X124497789Y-81912191D01*
X124212075Y-81912191D01*
X124069218Y-81983620D01*
X123426361Y-82912191D02*
X123426361Y-81412191D01*
X123283504Y-82340763D02*
X122854933Y-82912191D01*
X122854933Y-81912191D02*
X123426361Y-82483620D01*
X122354932Y-81912191D02*
X122069218Y-82912191D01*
X121783504Y-82197906D01*
X121497789Y-82912191D01*
X121212075Y-81912191D01*
X120426360Y-82912191D02*
X120569218Y-82840763D01*
X120640646Y-82769334D01*
X120712075Y-82626477D01*
X120712075Y-82197906D01*
X120640646Y-82055049D01*
X120569218Y-81983620D01*
X120426360Y-81912191D01*
X120212075Y-81912191D01*
X120069218Y-81983620D01*
X119997789Y-82055049D01*
X119926360Y-82197906D01*
X119926360Y-82626477D01*
X119997789Y-82769334D01*
X120069218Y-82840763D01*
X120212075Y-82912191D01*
X120426360Y-82912191D01*
X119069217Y-82912191D02*
X119212075Y-82840763D01*
X119283503Y-82769334D01*
X119354932Y-82626477D01*
X119354932Y-82197906D01*
X119283503Y-82055049D01*
X119212075Y-81983620D01*
X119069217Y-81912191D01*
X118854932Y-81912191D01*
X118712075Y-81983620D01*
X118640646Y-82055049D01*
X118569217Y-82197906D01*
X118569217Y-82626477D01*
X118640646Y-82769334D01*
X118712075Y-82840763D01*
X118854932Y-82912191D01*
X119069217Y-82912191D01*
X117283503Y-82912191D02*
X117283503Y-81412191D01*
X117283503Y-82840763D02*
X117426360Y-82912191D01*
X117712074Y-82912191D01*
X117854932Y-82840763D01*
X117926360Y-82769334D01*
X117997789Y-82626477D01*
X117997789Y-82197906D01*
X117926360Y-82055049D01*
X117854932Y-81983620D01*
X117712074Y-81912191D01*
X117426360Y-81912191D01*
X117283503Y-81983620D01*
X135640646Y-83812191D02*
X135640646Y-84883620D01*
X135712074Y-85097906D01*
X135854931Y-85240763D01*
X136069217Y-85312191D01*
X136212074Y-85312191D01*
X134712074Y-85312191D02*
X134854932Y-85240763D01*
X134926360Y-85169334D01*
X134997789Y-85026477D01*
X134997789Y-84597906D01*
X134926360Y-84455049D01*
X134854932Y-84383620D01*
X134712074Y-84312191D01*
X134497789Y-84312191D01*
X134354932Y-84383620D01*
X134283503Y-84455049D01*
X134212074Y-84597906D01*
X134212074Y-85026477D01*
X134283503Y-85169334D01*
X134354932Y-85240763D01*
X134497789Y-85312191D01*
X134712074Y-85312191D01*
X133640646Y-85240763D02*
X133497789Y-85312191D01*
X133212074Y-85312191D01*
X133069217Y-85240763D01*
X132997789Y-85097906D01*
X132997789Y-85026477D01*
X133069217Y-84883620D01*
X133212074Y-84812191D01*
X133426360Y-84812191D01*
X133569217Y-84740763D01*
X133640646Y-84597906D01*
X133640646Y-84526477D01*
X133569217Y-84383620D01*
X133426360Y-84312191D01*
X133212074Y-84312191D01*
X133069217Y-84383620D01*
X131783503Y-85240763D02*
X131926360Y-85312191D01*
X132212074Y-85312191D01*
X132354931Y-85240763D01*
X132426360Y-85097906D01*
X132426360Y-84526477D01*
X132354931Y-84383620D01*
X132212074Y-84312191D01*
X131926360Y-84312191D01*
X131783503Y-84383620D01*
X131712074Y-84526477D01*
X131712074Y-84669334D01*
X132426360Y-84812191D01*
X131069217Y-84312191D02*
X131069217Y-85812191D01*
X131069217Y-84383620D02*
X130926360Y-84312191D01*
X130640646Y-84312191D01*
X130497789Y-84383620D01*
X130426360Y-84455049D01*
X130354931Y-84597906D01*
X130354931Y-85026477D01*
X130426360Y-85169334D01*
X130497789Y-85240763D01*
X130640646Y-85312191D01*
X130926360Y-85312191D01*
X131069217Y-85240763D01*
X129712074Y-85312191D02*
X129712074Y-83812191D01*
X129069217Y-85312191D02*
X129069217Y-84526477D01*
X129140646Y-84383620D01*
X129283503Y-84312191D01*
X129497788Y-84312191D01*
X129640646Y-84383620D01*
X129712074Y-84455049D01*
X127212074Y-85312191D02*
X127212074Y-83812191D01*
X126854931Y-83812191D01*
X126640646Y-83883620D01*
X126497788Y-84026477D01*
X126426360Y-84169334D01*
X126354931Y-84455049D01*
X126354931Y-84669334D01*
X126426360Y-84955049D01*
X126497788Y-85097906D01*
X126640646Y-85240763D01*
X126854931Y-85312191D01*
X127212074Y-85312191D01*
X125069217Y-84312191D02*
X125069217Y-85312191D01*
X125712074Y-84312191D02*
X125712074Y-85097906D01*
X125640646Y-85240763D01*
X125497788Y-85312191D01*
X125283503Y-85312191D01*
X125140646Y-85240763D01*
X125069217Y-85169334D01*
X123712074Y-85240763D02*
X123854931Y-85312191D01*
X124140645Y-85312191D01*
X124283503Y-85240763D01*
X124354931Y-85169334D01*
X124426360Y-85026477D01*
X124426360Y-84597906D01*
X124354931Y-84455049D01*
X124283503Y-84383620D01*
X124140645Y-84312191D01*
X123854931Y-84312191D01*
X123712074Y-84383620D01*
X123069217Y-85312191D02*
X123069217Y-83812191D01*
X122426360Y-85312191D02*
X122426360Y-84526477D01*
X122497789Y-84383620D01*
X122640646Y-84312191D01*
X122854931Y-84312191D01*
X122997789Y-84383620D01*
X123069217Y-84455049D01*
X121140646Y-85240763D02*
X121283503Y-85312191D01*
X121569217Y-85312191D01*
X121712074Y-85240763D01*
X121783503Y-85097906D01*
X121783503Y-84526477D01*
X121712074Y-84383620D01*
X121569217Y-84312191D01*
X121283503Y-84312191D01*
X121140646Y-84383620D01*
X121069217Y-84526477D01*
X121069217Y-84669334D01*
X121783503Y-84812191D01*
X120497789Y-85240763D02*
X120354932Y-85312191D01*
X120069217Y-85312191D01*
X119926360Y-85240763D01*
X119854932Y-85097906D01*
X119854932Y-85026477D01*
X119926360Y-84883620D01*
X120069217Y-84812191D01*
X120283503Y-84812191D01*
X120426360Y-84740763D01*
X120497789Y-84597906D01*
X120497789Y-84526477D01*
X120426360Y-84383620D01*
X120283503Y-84312191D01*
X120069217Y-84312191D01*
X119926360Y-84383620D01*
X119212074Y-84312191D02*
X119212074Y-85312191D01*
X119212074Y-84455049D02*
X119140646Y-84383620D01*
X118997788Y-84312191D01*
X118783503Y-84312191D01*
X118640646Y-84383620D01*
X118569217Y-84526477D01*
X118569217Y-85312191D01*
X117283503Y-85240763D02*
X117426360Y-85312191D01*
X117712074Y-85312191D01*
X117854931Y-85240763D01*
X117926360Y-85097906D01*
X117926360Y-84526477D01*
X117854931Y-84383620D01*
X117712074Y-84312191D01*
X117426360Y-84312191D01*
X117283503Y-84383620D01*
X117212074Y-84526477D01*
X117212074Y-84669334D01*
X117926360Y-84812191D01*
D12*
X149970435Y-123650965D02*
X150237102Y-123270012D01*
X150427578Y-123650965D02*
X150427578Y-122850965D01*
X150122816Y-122850965D01*
X150046625Y-122889060D01*
X150008530Y-122927155D01*
X149970435Y-123003346D01*
X149970435Y-123117631D01*
X150008530Y-123193822D01*
X150046625Y-123231917D01*
X150122816Y-123270012D01*
X150427578Y-123270012D01*
X149665673Y-123612870D02*
X149551387Y-123650965D01*
X149360911Y-123650965D01*
X149284721Y-123612870D01*
X149246625Y-123574774D01*
X149208530Y-123498584D01*
X149208530Y-123422393D01*
X149246625Y-123346203D01*
X149284721Y-123308108D01*
X149360911Y-123270012D01*
X149513292Y-123231917D01*
X149589483Y-123193822D01*
X149627578Y-123155727D01*
X149665673Y-123079536D01*
X149665673Y-123003346D01*
X149627578Y-122927155D01*
X149589483Y-122889060D01*
X149513292Y-122850965D01*
X149322816Y-122850965D01*
X149208530Y-122889060D01*
X148979959Y-122850965D02*
X148522816Y-122850965D01*
X148751387Y-123650965D02*
X148751387Y-122850965D01*
X161668303Y-123650965D02*
X161668303Y-122850965D01*
X161401636Y-123422393D01*
X161134969Y-122850965D01*
X161134969Y-123650965D01*
X160754017Y-123650965D02*
X160754017Y-122850965D01*
X160411160Y-123612870D02*
X160296874Y-123650965D01*
X160106398Y-123650965D01*
X160030208Y-123612870D01*
X159992112Y-123574774D01*
X159954017Y-123498584D01*
X159954017Y-123422393D01*
X159992112Y-123346203D01*
X160030208Y-123308108D01*
X160106398Y-123270012D01*
X160258779Y-123231917D01*
X160334970Y-123193822D01*
X160373065Y-123155727D01*
X160411160Y-123079536D01*
X160411160Y-123003346D01*
X160373065Y-122927155D01*
X160334970Y-122889060D01*
X160258779Y-122850965D01*
X160068303Y-122850965D01*
X159954017Y-122889060D01*
X159458779Y-122850965D02*
X159306398Y-122850965D01*
X159230207Y-122889060D01*
X159154017Y-122965250D01*
X159115922Y-123117631D01*
X159115922Y-123384298D01*
X159154017Y-123536679D01*
X159230207Y-123612870D01*
X159306398Y-123650965D01*
X159458779Y-123650965D01*
X159534969Y-123612870D01*
X159611160Y-123536679D01*
X159649255Y-123384298D01*
X159649255Y-123117631D01*
X159611160Y-122965250D01*
X159534969Y-122889060D01*
X159458779Y-122850965D01*
X159341287Y-118550683D02*
X158731763Y-118550683D01*
X159036525Y-118855445D02*
X159036525Y-118245921D01*
X157969858Y-118055445D02*
X158350811Y-118055445D01*
X158388906Y-118436397D01*
X158350811Y-118398302D01*
X158274620Y-118360207D01*
X158084144Y-118360207D01*
X158007954Y-118398302D01*
X157969858Y-118436397D01*
X157931763Y-118512588D01*
X157931763Y-118703064D01*
X157969858Y-118779254D01*
X158007954Y-118817350D01*
X158084144Y-118855445D01*
X158274620Y-118855445D01*
X158350811Y-118817350D01*
X158388906Y-118779254D01*
X157665096Y-118322111D02*
X157474620Y-118855445D01*
X157284144Y-118322111D01*
X156369858Y-118855445D02*
X156369858Y-118055445D01*
X156103191Y-118626873D01*
X155836524Y-118055445D01*
X155836524Y-118855445D01*
X155303191Y-118055445D02*
X155150810Y-118055445D01*
X155074619Y-118093540D01*
X154998429Y-118169730D01*
X154960334Y-118322111D01*
X154960334Y-118588778D01*
X154998429Y-118741159D01*
X155074619Y-118817350D01*
X155150810Y-118855445D01*
X155303191Y-118855445D01*
X155379381Y-118817350D01*
X155455572Y-118741159D01*
X155493667Y-118588778D01*
X155493667Y-118322111D01*
X155455572Y-118169730D01*
X155379381Y-118093540D01*
X155303191Y-118055445D01*
X154655572Y-118817350D02*
X154541286Y-118855445D01*
X154350810Y-118855445D01*
X154274620Y-118817350D01*
X154236524Y-118779254D01*
X154198429Y-118703064D01*
X154198429Y-118626873D01*
X154236524Y-118550683D01*
X154274620Y-118512588D01*
X154350810Y-118474492D01*
X154503191Y-118436397D01*
X154579382Y-118398302D01*
X154617477Y-118360207D01*
X154655572Y-118284016D01*
X154655572Y-118207826D01*
X154617477Y-118131635D01*
X154579382Y-118093540D01*
X154503191Y-118055445D01*
X154312715Y-118055445D01*
X154198429Y-118093540D01*
X153855572Y-118855445D02*
X153855572Y-118055445D01*
X152446048Y-118093540D02*
X152522239Y-118055445D01*
X152636524Y-118055445D01*
X152750810Y-118093540D01*
X152827001Y-118169730D01*
X152865096Y-118245921D01*
X152903191Y-118398302D01*
X152903191Y-118512588D01*
X152865096Y-118664969D01*
X152827001Y-118741159D01*
X152750810Y-118817350D01*
X152636524Y-118855445D01*
X152560334Y-118855445D01*
X152446048Y-118817350D01*
X152407953Y-118779254D01*
X152407953Y-118512588D01*
X152560334Y-118512588D01*
X152065096Y-118855445D02*
X152065096Y-118055445D01*
X151607953Y-118855445D01*
X151607953Y-118055445D01*
X151227001Y-118855445D02*
X151227001Y-118055445D01*
X151036525Y-118055445D01*
X150922239Y-118093540D01*
X150846048Y-118169730D01*
X150807953Y-118245921D01*
X150769858Y-118398302D01*
X150769858Y-118512588D01*
X150807953Y-118664969D01*
X150846048Y-118741159D01*
X150922239Y-118817350D01*
X151036525Y-118855445D01*
X151227001Y-118855445D01*
D13*
X137185542Y-107313481D02*
X136947447Y-108313481D01*
X136756970Y-107599195D01*
X136566494Y-108313481D01*
X136328399Y-107313481D01*
X135376018Y-108313481D02*
X135709352Y-107837290D01*
X135947447Y-108313481D02*
X135947447Y-107313481D01*
X135566494Y-107313481D01*
X135471256Y-107361100D01*
X135423637Y-107408719D01*
X135376018Y-107503957D01*
X135376018Y-107646814D01*
X135423637Y-107742052D01*
X135471256Y-107789671D01*
X135566494Y-107837290D01*
X135947447Y-107837290D01*
X135042685Y-107313481D02*
X134376018Y-108313481D01*
X134376018Y-107313481D02*
X135042685Y-108313481D01*
X137401774Y-109896661D02*
X137163679Y-110896661D01*
X136973202Y-110182375D01*
X136782726Y-110896661D01*
X136544631Y-109896661D01*
X136306536Y-109896661D02*
X135735107Y-109896661D01*
X136020822Y-110896661D02*
X136020822Y-109896661D01*
X135497012Y-109896661D02*
X134830345Y-110896661D01*
X134830345Y-109896661D02*
X135497012Y-110896661D01*
X136611905Y-104742360D02*
X136707143Y-104694741D01*
X136850000Y-104694741D01*
X136992858Y-104742360D01*
X137088096Y-104837598D01*
X137135715Y-104932836D01*
X137183334Y-105123312D01*
X137183334Y-105266170D01*
X137135715Y-105456646D01*
X137088096Y-105551884D01*
X136992858Y-105647122D01*
X136850000Y-105694741D01*
X136754762Y-105694741D01*
X136611905Y-105647122D01*
X136564286Y-105599503D01*
X136564286Y-105266170D01*
X136754762Y-105266170D01*
X136135715Y-105694741D02*
X136135715Y-104694741D01*
X135754762Y-104694741D01*
X135659524Y-104742360D01*
X135611905Y-104789979D01*
X135564286Y-104885217D01*
X135564286Y-105028074D01*
X135611905Y-105123312D01*
X135659524Y-105170931D01*
X135754762Y-105218550D01*
X136135715Y-105218550D01*
X134945239Y-104694741D02*
X134850000Y-104694741D01*
X134754762Y-104742360D01*
X134707143Y-104789979D01*
X134659524Y-104885217D01*
X134611905Y-105075693D01*
X134611905Y-105313789D01*
X134659524Y-105504265D01*
X134707143Y-105599503D01*
X134754762Y-105647122D01*
X134850000Y-105694741D01*
X134945239Y-105694741D01*
X135040477Y-105647122D01*
X135088096Y-105599503D01*
X135135715Y-105504265D01*
X135183334Y-105313789D01*
X135183334Y-105075693D01*
X135135715Y-104885217D01*
X135088096Y-104789979D01*
X135040477Y-104742360D01*
X134945239Y-104694741D01*
D14*
X132770000Y-107480000D02*
X132770000Y-110020000D01*
X132770000Y-110020000D02*
X130230000Y-110020000D01*
X130230000Y-110020000D02*
X122610000Y-110020000D01*
X122610000Y-110020000D02*
X122610000Y-104940000D01*
X122610000Y-104940000D02*
X132770000Y-104940000D01*
X132770000Y-104940000D02*
X132770000Y-107480000D01*
D12*
X129251000Y-115325000D02*
X134249000Y-115325000D01*
X129259000Y-115465000D02*
X134241000Y-115465000D01*
X129275000Y-115605000D02*
X131655000Y-115605000D01*
X131845000Y-115605000D02*
X134225000Y-115605000D01*
X129299000Y-115745000D02*
X131260000Y-115745000D01*
X132240000Y-115745000D02*
X134201000Y-115745000D01*
X129332000Y-115885000D02*
X131093000Y-115885000D01*
X132407000Y-115885000D02*
X134168000Y-115885000D01*
X129373000Y-116025000D02*
X130986000Y-116025000D01*
X132514000Y-116025000D02*
X134127000Y-116025000D01*
X129423000Y-116165000D02*
X130915000Y-116165000D01*
X132585000Y-116165000D02*
X134077000Y-116165000D01*
X129484000Y-116305000D02*
X130871000Y-116305000D01*
X132629000Y-116305000D02*
X134016000Y-116305000D01*
X129554000Y-116445000D02*
X130852000Y-116445000D01*
X132648000Y-116445000D02*
X133946000Y-116445000D01*
X129636000Y-116585000D02*
X130854000Y-116585000D01*
X132646000Y-116585000D02*
X133864000Y-116585000D01*
X129731000Y-116725000D02*
X130879000Y-116725000D01*
X132621000Y-116725000D02*
X133769000Y-116725000D01*
X129842000Y-116865000D02*
X130927000Y-116865000D01*
X132573000Y-116865000D02*
X133658000Y-116865000D01*
X129970000Y-117005000D02*
X131005000Y-117005000D01*
X132495000Y-117005000D02*
X133530000Y-117005000D01*
X130119000Y-117145000D02*
X131122000Y-117145000D01*
X132378000Y-117145000D02*
X133381000Y-117145000D01*
X130298000Y-117285000D02*
X131310000Y-117285000D01*
X132190000Y-117285000D02*
X133202000Y-117285000D01*
X130517000Y-117425000D02*
X132983000Y-117425000D01*
X130806000Y-117565000D02*
X132694000Y-117565000D01*
X131278000Y-117705000D02*
X132222000Y-117705000D01*
X132650000Y-116500000D02*
G75*
G03X132650000Y-116500000I-900000J0D01*
G01*
X134287500Y-115250000D02*
G75*
G03X134287500Y-115250000I-2537500J0D01*
G01*
X145251000Y-84825000D02*
X150249000Y-84825000D01*
X145259000Y-84965000D02*
X150241000Y-84965000D01*
X145275000Y-85105000D02*
X147655000Y-85105000D01*
X147845000Y-85105000D02*
X150225000Y-85105000D01*
X145299000Y-85245000D02*
X147260000Y-85245000D01*
X148240000Y-85245000D02*
X150201000Y-85245000D01*
X145332000Y-85385000D02*
X147093000Y-85385000D01*
X148407000Y-85385000D02*
X150168000Y-85385000D01*
X145373000Y-85525000D02*
X146986000Y-85525000D01*
X148514000Y-85525000D02*
X150127000Y-85525000D01*
X145423000Y-85665000D02*
X146915000Y-85665000D01*
X148585000Y-85665000D02*
X150077000Y-85665000D01*
X145484000Y-85805000D02*
X146871000Y-85805000D01*
X148629000Y-85805000D02*
X150016000Y-85805000D01*
X145554000Y-85945000D02*
X146852000Y-85945000D01*
X148648000Y-85945000D02*
X149946000Y-85945000D01*
X145636000Y-86085000D02*
X146854000Y-86085000D01*
X148646000Y-86085000D02*
X149864000Y-86085000D01*
X145731000Y-86225000D02*
X146879000Y-86225000D01*
X148621000Y-86225000D02*
X149769000Y-86225000D01*
X145842000Y-86365000D02*
X146927000Y-86365000D01*
X148573000Y-86365000D02*
X149658000Y-86365000D01*
X145970000Y-86505000D02*
X147005000Y-86505000D01*
X148495000Y-86505000D02*
X149530000Y-86505000D01*
X146119000Y-86645000D02*
X147122000Y-86645000D01*
X148378000Y-86645000D02*
X149381000Y-86645000D01*
X146298000Y-86785000D02*
X147310000Y-86785000D01*
X148190000Y-86785000D02*
X149202000Y-86785000D01*
X146517000Y-86925000D02*
X148983000Y-86925000D01*
X146806000Y-87065000D02*
X148694000Y-87065000D01*
X147278000Y-87205000D02*
X148222000Y-87205000D01*
X148650000Y-86000000D02*
G75*
G03X148650000Y-86000000I-900000J0D01*
G01*
X150287500Y-84750000D02*
G75*
G03X150287500Y-84750000I-2537500J0D01*
G01*
X137480000Y-108980000D02*
X137480000Y-103900000D01*
X137200000Y-111800000D02*
X138750000Y-111800000D01*
X140020000Y-111520000D02*
X140020000Y-108980000D01*
X140020000Y-108980000D02*
X137480000Y-108980000D01*
X137480000Y-103900000D02*
X142560000Y-103900000D01*
X142560000Y-103900000D02*
X142560000Y-108980000D01*
X137200000Y-111800000D02*
X137200000Y-110250000D01*
X142560000Y-111520000D02*
X140020000Y-111520000D01*
X142560000Y-108980000D02*
X142560000Y-111520000D01*
X146603553Y-109000000D02*
G75*
G03X146603553Y-109000000I-353553J0D01*
G01*
X158050000Y-115700000D02*
X158050000Y-108300000D01*
X158050000Y-108300000D02*
X145450000Y-108300000D01*
X145450000Y-108300000D02*
X145450000Y-115700000D01*
X145450000Y-115700000D02*
X158050000Y-115700000D01*
X155980000Y-124020000D02*
X150900000Y-124020000D01*
X158800000Y-124300000D02*
X158800000Y-122750000D01*
X158520000Y-121480000D02*
X155980000Y-121480000D01*
X155980000Y-121480000D02*
X155980000Y-124020000D01*
X150900000Y-124020000D02*
X150900000Y-118940000D01*
X150900000Y-118940000D02*
X155980000Y-118940000D01*
X158800000Y-124300000D02*
X157250000Y-124300000D01*
X158520000Y-118940000D02*
X158520000Y-121480000D01*
X155980000Y-118940000D02*
X158520000Y-118940000D01*
X143175000Y-96310000D02*
X136825000Y-96310000D01*
X143175000Y-88690000D02*
X136825000Y-88690000D01*
X141270000Y-88690000D02*
X141270000Y-96310000D01*
X143175000Y-96310000D02*
X143175000Y-88690000D01*
X136825000Y-88690000D02*
X136825000Y-96310000D01*
X132031000Y-102005000D02*
X131031000Y-102005000D01*
X131031000Y-103355000D02*
X132031000Y-103355000D01*
X131103000Y-100825000D02*
X132103000Y-100825000D01*
X132103000Y-99475000D02*
X131103000Y-99475000D01*
X131105000Y-98622500D02*
X132105000Y-98622500D01*
X132105000Y-97272500D02*
X131105000Y-97272500D01*
X145624000Y-90943900D02*
X145624000Y-92743900D01*
X145624000Y-90943900D02*
X149124000Y-90943900D01*
X149124000Y-90943900D02*
X149124000Y-92743900D01*
X149124000Y-92743900D02*
X145624000Y-92743900D01*
X145609000Y-93331500D02*
X145609000Y-95131500D01*
X145609000Y-93331500D02*
X149109000Y-93331500D01*
X149109000Y-93331500D02*
X149109000Y-95131500D01*
X149109000Y-95131500D02*
X145609000Y-95131500D01*
X145656000Y-95716500D02*
X145656000Y-97516500D01*
X145656000Y-95716500D02*
X149156000Y-95716500D01*
X149156000Y-95716500D02*
X149156000Y-97516500D01*
X149156000Y-97516500D02*
X145656000Y-97516500D01*
X145731000Y-98101600D02*
X145731000Y-99901600D01*
X145731000Y-98101600D02*
X149231000Y-98101600D01*
X149231000Y-98101600D02*
X149231000Y-99901600D01*
X149231000Y-99901600D02*
X145731000Y-99901600D01*
X145735000Y-100446000D02*
X145735000Y-102246000D01*
X145735000Y-100446000D02*
X149235000Y-100446000D01*
X149235000Y-100446000D02*
X149235000Y-102246000D01*
X149235000Y-102246000D02*
X145735000Y-102246000D01*
X145694000Y-102831000D02*
X145694000Y-104631000D01*
X145694000Y-102831000D02*
X149194000Y-102831000D01*
X149194000Y-102831000D02*
X149194000Y-104631000D01*
X149194000Y-104631000D02*
X145694000Y-104631000D01*
X128606823Y-113201154D02*
X128654442Y-113153535D01*
X128702061Y-113010678D01*
X128702061Y-112915440D01*
X128654442Y-112772582D01*
X128559204Y-112677344D01*
X128463966Y-112629725D01*
X128273490Y-112582106D01*
X128130632Y-112582106D01*
X127940156Y-112629725D01*
X127844918Y-112677344D01*
X127749680Y-112772582D01*
X127702061Y-112915440D01*
X127702061Y-113010678D01*
X127749680Y-113153535D01*
X127797299Y-113201154D01*
X128702061Y-114153535D02*
X128702061Y-113582106D01*
X128702061Y-113867820D02*
X127702061Y-113867820D01*
X127844918Y-113772582D01*
X127940156Y-113677344D01*
X127987775Y-113582106D01*
X144307143Y-84107143D02*
X144354762Y-84059524D01*
X144402381Y-83916667D01*
X144402381Y-83821429D01*
X144354762Y-83678571D01*
X144259524Y-83583333D01*
X144164286Y-83535714D01*
X143973810Y-83488095D01*
X143830952Y-83488095D01*
X143640476Y-83535714D01*
X143545238Y-83583333D01*
X143450000Y-83678571D01*
X143402381Y-83821429D01*
X143402381Y-83916667D01*
X143450000Y-84059524D01*
X143497619Y-84107143D01*
X144402381Y-85059524D02*
X144402381Y-84488095D01*
X144402381Y-84773809D02*
X143402381Y-84773809D01*
X143545238Y-84678571D01*
X143640476Y-84583333D01*
X143688095Y-84488095D01*
X144402381Y-86011905D02*
X144402381Y-85440476D01*
X144402381Y-85726190D02*
X143402381Y-85726190D01*
X143545238Y-85630952D01*
X143640476Y-85535714D01*
X143688095Y-85440476D01*
X147000387Y-128516071D02*
X146667053Y-128516071D01*
X146524196Y-129039881D02*
X147000387Y-129039881D01*
X147000387Y-128039881D01*
X146524196Y-128039881D01*
X146143244Y-128992262D02*
X146000387Y-129039881D01*
X145762291Y-129039881D01*
X145667053Y-128992262D01*
X145619434Y-128944643D01*
X145571815Y-128849405D01*
X145571815Y-128754167D01*
X145619434Y-128658929D01*
X145667053Y-128611310D01*
X145762291Y-128563690D01*
X145952768Y-128516071D01*
X146048006Y-128468452D01*
X146095625Y-128420833D01*
X146143244Y-128325595D01*
X146143244Y-128230357D01*
X146095625Y-128135119D01*
X146048006Y-128087500D01*
X145952768Y-128039881D01*
X145714672Y-128039881D01*
X145571815Y-128087500D01*
X145143244Y-129039881D02*
X145143244Y-128039881D01*
X144762291Y-128039881D01*
X144667053Y-128087500D01*
X144619434Y-128135119D01*
X144571815Y-128230357D01*
X144571815Y-128373214D01*
X144619434Y-128468452D01*
X144667053Y-128516071D01*
X144762291Y-128563690D01*
X145143244Y-128563690D01*
X143619434Y-129039881D02*
X144190863Y-129039881D01*
X143905149Y-129039881D02*
X143905149Y-128039881D01*
X144000387Y-128182738D01*
X144095625Y-128277976D01*
X144190863Y-128325595D01*
X156772596Y-112122247D02*
X156296405Y-112122247D01*
X156867834Y-112407961D02*
X156534501Y-111407961D01*
X156201167Y-112407961D01*
X156010691Y-111407961D02*
X155439262Y-111407961D01*
X155724977Y-112407961D02*
X155724977Y-111407961D01*
X155248786Y-111407961D02*
X154677357Y-111407961D01*
X154963072Y-112407961D02*
X154963072Y-111407961D01*
X154344024Y-112407961D02*
X154344024Y-111407961D01*
X153867834Y-112407961D02*
X153867834Y-111407961D01*
X153296405Y-112407961D01*
X153296405Y-111407961D01*
X152629739Y-111931770D02*
X152629739Y-112407961D01*
X152963072Y-111407961D02*
X152629739Y-111931770D01*
X152296405Y-111407961D01*
X152010691Y-111503199D02*
X151963072Y-111455580D01*
X151867834Y-111407961D01*
X151629738Y-111407961D01*
X151534500Y-111455580D01*
X151486881Y-111503199D01*
X151439262Y-111598437D01*
X151439262Y-111693675D01*
X151486881Y-111836532D01*
X152058310Y-112407961D01*
X151439262Y-112407961D01*
X151105929Y-111407961D02*
X150486881Y-111407961D01*
X150820215Y-111788913D01*
X150677357Y-111788913D01*
X150582119Y-111836532D01*
X150534500Y-111884151D01*
X150486881Y-111979390D01*
X150486881Y-112217485D01*
X150534500Y-112312723D01*
X150582119Y-112360342D01*
X150677357Y-112407961D01*
X150963072Y-112407961D01*
X151058310Y-112360342D01*
X151105929Y-112312723D01*
X149534500Y-112407961D02*
X150105929Y-112407961D01*
X149820215Y-112407961D02*
X149820215Y-111407961D01*
X149915453Y-111550818D01*
X150010691Y-111646056D01*
X150105929Y-111693675D01*
X149201167Y-111407961D02*
X148582119Y-111407961D01*
X148915453Y-111788913D01*
X148772595Y-111788913D01*
X148677357Y-111836532D01*
X148629738Y-111884151D01*
X148582119Y-111979390D01*
X148582119Y-112217485D01*
X148629738Y-112312723D01*
X148677357Y-112360342D01*
X148772595Y-112407961D01*
X149058310Y-112407961D01*
X149153548Y-112360342D01*
X149201167Y-112312723D01*
X148153548Y-112027009D02*
X147391643Y-112027009D01*
X146963072Y-112360342D02*
X146820215Y-112407961D01*
X146582119Y-112407961D01*
X146486881Y-112360342D01*
X146439262Y-112312723D01*
X146391643Y-112217485D01*
X146391643Y-112122247D01*
X146439262Y-112027009D01*
X146486881Y-111979390D01*
X146582119Y-111931770D01*
X146772596Y-111884151D01*
X146867834Y-111836532D01*
X146915453Y-111788913D01*
X146963072Y-111693675D01*
X146963072Y-111598437D01*
X146915453Y-111503199D01*
X146867834Y-111455580D01*
X146772596Y-111407961D01*
X146534500Y-111407961D01*
X146391643Y-111455580D01*
X160855921Y-119046810D02*
X159855921Y-119046810D01*
X160760683Y-120094429D02*
X160808302Y-120046810D01*
X160855921Y-119903953D01*
X160855921Y-119808715D01*
X160808302Y-119665857D01*
X160713064Y-119570619D01*
X160617826Y-119523000D01*
X160427350Y-119475381D01*
X160284492Y-119475381D01*
X160094016Y-119523000D01*
X159998778Y-119570619D01*
X159903540Y-119665857D01*
X159855921Y-119808715D01*
X159855921Y-119903953D01*
X159903540Y-120046810D01*
X159951159Y-120094429D01*
X160855921Y-120523000D02*
X159855921Y-120523000D01*
X159855921Y-120903953D01*
X159903540Y-120999191D01*
X159951159Y-121046810D01*
X160046397Y-121094429D01*
X160189254Y-121094429D01*
X160284492Y-121046810D01*
X160332111Y-120999191D01*
X160379730Y-120903953D01*
X160379730Y-120523000D01*
X160855921Y-122046810D02*
X160855921Y-121475381D01*
X160855921Y-121761095D02*
X159855921Y-121761095D01*
X159998778Y-121665857D01*
X160094016Y-121570619D01*
X160141635Y-121475381D01*
X144551661Y-90389960D02*
X144551661Y-89913769D01*
X143551661Y-89913769D01*
X144551661Y-90723293D02*
X143551661Y-90723293D01*
X143551661Y-90961388D01*
X143599280Y-91104246D01*
X143694518Y-91199484D01*
X143789756Y-91247103D01*
X143980232Y-91294722D01*
X144123090Y-91294722D01*
X144313566Y-91247103D01*
X144408804Y-91199484D01*
X144504042Y-91104246D01*
X144551661Y-90961388D01*
X144551661Y-90723293D01*
X143551661Y-91628055D02*
X143551661Y-92247103D01*
X143932613Y-91913769D01*
X143932613Y-92056627D01*
X143980232Y-92151865D01*
X144027851Y-92199484D01*
X144123090Y-92247103D01*
X144361185Y-92247103D01*
X144456423Y-92199484D01*
X144504042Y-92151865D01*
X144551661Y-92056627D01*
X144551661Y-91770912D01*
X144504042Y-91675674D01*
X144456423Y-91628055D01*
X143551661Y-92580436D02*
X143551661Y-93199484D01*
X143932613Y-92866150D01*
X143932613Y-93009008D01*
X143980232Y-93104246D01*
X144027851Y-93151865D01*
X144123090Y-93199484D01*
X144361185Y-93199484D01*
X144456423Y-93151865D01*
X144504042Y-93104246D01*
X144551661Y-93009008D01*
X144551661Y-92723293D01*
X144504042Y-92628055D01*
X144456423Y-92580436D01*
X143884994Y-93532817D02*
X144551661Y-93770912D01*
X143884994Y-94009008D01*
X144551661Y-94913770D02*
X144551661Y-94342341D01*
X144551661Y-94628055D02*
X143551661Y-94628055D01*
X143694518Y-94532817D01*
X143789756Y-94437579D01*
X143837375Y-94342341D01*
X128363006Y-103210621D02*
X128696340Y-102734430D01*
X128934435Y-103210621D02*
X128934435Y-102210621D01*
X128553482Y-102210621D01*
X128458244Y-102258240D01*
X128410625Y-102305859D01*
X128363006Y-102401097D01*
X128363006Y-102543954D01*
X128410625Y-102639192D01*
X128458244Y-102686811D01*
X128553482Y-102734430D01*
X128934435Y-102734430D01*
X127410625Y-103210621D02*
X127982054Y-103210621D01*
X127696340Y-103210621D02*
X127696340Y-102210621D01*
X127791578Y-102353478D01*
X127886816Y-102448716D01*
X127982054Y-102496335D01*
X128363006Y-100612201D02*
X128696340Y-100136010D01*
X128934435Y-100612201D02*
X128934435Y-99612201D01*
X128553482Y-99612201D01*
X128458244Y-99659820D01*
X128410625Y-99707439D01*
X128363006Y-99802677D01*
X128363006Y-99945534D01*
X128410625Y-100040772D01*
X128458244Y-100088391D01*
X128553482Y-100136010D01*
X128934435Y-100136010D01*
X127982054Y-99707439D02*
X127934435Y-99659820D01*
X127839197Y-99612201D01*
X127601101Y-99612201D01*
X127505863Y-99659820D01*
X127458244Y-99707439D01*
X127410625Y-99802677D01*
X127410625Y-99897915D01*
X127458244Y-100040772D01*
X128029673Y-100612201D01*
X127410625Y-100612201D01*
X128446826Y-98483681D02*
X128780160Y-98007490D01*
X129018255Y-98483681D02*
X129018255Y-97483681D01*
X128637302Y-97483681D01*
X128542064Y-97531300D01*
X128494445Y-97578919D01*
X128446826Y-97674157D01*
X128446826Y-97817014D01*
X128494445Y-97912252D01*
X128542064Y-97959871D01*
X128637302Y-98007490D01*
X129018255Y-98007490D01*
X128113493Y-97483681D02*
X127494445Y-97483681D01*
X127827779Y-97864633D01*
X127684921Y-97864633D01*
X127589683Y-97912252D01*
X127542064Y-97959871D01*
X127494445Y-98055110D01*
X127494445Y-98293205D01*
X127542064Y-98388443D01*
X127589683Y-98436062D01*
X127684921Y-98483681D01*
X127970636Y-98483681D01*
X128065874Y-98436062D01*
X128113493Y-98388443D01*
X151464259Y-92188303D02*
X151511878Y-92235922D01*
X151654735Y-92283541D01*
X151749973Y-92283541D01*
X151892831Y-92235922D01*
X151988069Y-92140684D01*
X152035688Y-92045446D01*
X152083307Y-91854970D01*
X152083307Y-91712112D01*
X152035688Y-91521636D01*
X151988069Y-91426398D01*
X151892831Y-91331160D01*
X151749973Y-91283541D01*
X151654735Y-91283541D01*
X151511878Y-91331160D01*
X151464259Y-91378779D01*
X151178545Y-91283541D02*
X150607116Y-91283541D01*
X150892831Y-92283541D02*
X150892831Y-91283541D01*
X150083307Y-91283541D02*
X149988068Y-91283541D01*
X149892830Y-91331160D01*
X149845211Y-91378779D01*
X149797592Y-91474017D01*
X149749973Y-91664493D01*
X149749973Y-91902589D01*
X149797592Y-92093065D01*
X149845211Y-92188303D01*
X149892830Y-92235922D01*
X149988068Y-92283541D01*
X150083307Y-92283541D01*
X150178545Y-92235922D01*
X150226164Y-92188303D01*
X150273783Y-92093065D01*
X150321402Y-91902589D01*
X150321402Y-91664493D01*
X150273783Y-91474017D01*
X150226164Y-91378779D01*
X150178545Y-91331160D01*
X150083307Y-91283541D01*
X151365199Y-94746083D02*
X151412818Y-94793702D01*
X151555675Y-94841321D01*
X151650913Y-94841321D01*
X151793771Y-94793702D01*
X151889009Y-94698464D01*
X151936628Y-94603226D01*
X151984247Y-94412750D01*
X151984247Y-94269892D01*
X151936628Y-94079416D01*
X151889009Y-93984178D01*
X151793771Y-93888940D01*
X151650913Y-93841321D01*
X151555675Y-93841321D01*
X151412818Y-93888940D01*
X151365199Y-93936559D01*
X151079485Y-93841321D02*
X150508056Y-93841321D01*
X150793771Y-94841321D02*
X150793771Y-93841321D01*
X149650913Y-94841321D02*
X150222342Y-94841321D01*
X149936628Y-94841321D02*
X149936628Y-93841321D01*
X150031866Y-93984178D01*
X150127104Y-94079416D01*
X150222342Y-94127035D01*
X151573479Y-97240363D02*
X151621098Y-97287982D01*
X151763955Y-97335601D01*
X151859193Y-97335601D01*
X152002051Y-97287982D01*
X152097289Y-97192744D01*
X152144908Y-97097506D01*
X152192527Y-96907030D01*
X152192527Y-96764172D01*
X152144908Y-96573696D01*
X152097289Y-96478458D01*
X152002051Y-96383220D01*
X151859193Y-96335601D01*
X151763955Y-96335601D01*
X151621098Y-96383220D01*
X151573479Y-96430839D01*
X151287765Y-96335601D02*
X150716336Y-96335601D01*
X151002051Y-97335601D02*
X151002051Y-96335601D01*
X150430622Y-96430839D02*
X150383003Y-96383220D01*
X150287765Y-96335601D01*
X150049669Y-96335601D01*
X149954431Y-96383220D01*
X149906812Y-96430839D01*
X149859193Y-96526077D01*
X149859193Y-96621315D01*
X149906812Y-96764172D01*
X150478241Y-97335601D01*
X149859193Y-97335601D01*
X151573479Y-99437463D02*
X151621098Y-99485082D01*
X151763955Y-99532701D01*
X151859193Y-99532701D01*
X152002051Y-99485082D01*
X152097289Y-99389844D01*
X152144908Y-99294606D01*
X152192527Y-99104130D01*
X152192527Y-98961272D01*
X152144908Y-98770796D01*
X152097289Y-98675558D01*
X152002051Y-98580320D01*
X151859193Y-98532701D01*
X151763955Y-98532701D01*
X151621098Y-98580320D01*
X151573479Y-98627939D01*
X151287765Y-98532701D02*
X150716336Y-98532701D01*
X151002051Y-99532701D02*
X151002051Y-98532701D01*
X150478241Y-98532701D02*
X149859193Y-98532701D01*
X150192527Y-98913653D01*
X150049669Y-98913653D01*
X149954431Y-98961272D01*
X149906812Y-99008891D01*
X149859193Y-99104130D01*
X149859193Y-99342225D01*
X149906812Y-99437463D01*
X149954431Y-99485082D01*
X150049669Y-99532701D01*
X150335384Y-99532701D01*
X150430622Y-99485082D01*
X150478241Y-99437463D01*
X151520139Y-101746323D02*
X151567758Y-101793942D01*
X151710615Y-101841561D01*
X151805853Y-101841561D01*
X151948711Y-101793942D01*
X152043949Y-101698704D01*
X152091568Y-101603466D01*
X152139187Y-101412990D01*
X152139187Y-101270132D01*
X152091568Y-101079656D01*
X152043949Y-100984418D01*
X151948711Y-100889180D01*
X151805853Y-100841561D01*
X151710615Y-100841561D01*
X151567758Y-100889180D01*
X151520139Y-100936799D01*
X151234425Y-100841561D02*
X150662996Y-100841561D01*
X150948711Y-101841561D02*
X150948711Y-100841561D01*
X149901091Y-101174894D02*
X149901091Y-101841561D01*
X150139187Y-100793942D02*
X150377282Y-101508228D01*
X149758234Y-101508228D01*
X151520139Y-104052643D02*
X151567758Y-104100262D01*
X151710615Y-104147881D01*
X151805853Y-104147881D01*
X151948711Y-104100262D01*
X152043949Y-104005024D01*
X152091568Y-103909786D01*
X152139187Y-103719310D01*
X152139187Y-103576452D01*
X152091568Y-103385976D01*
X152043949Y-103290738D01*
X151948711Y-103195500D01*
X151805853Y-103147881D01*
X151710615Y-103147881D01*
X151567758Y-103195500D01*
X151520139Y-103243119D01*
X151234425Y-103147881D02*
X150662996Y-103147881D01*
X150948711Y-104147881D02*
X150948711Y-103147881D01*
X149853472Y-103147881D02*
X150329663Y-103147881D01*
X150377282Y-103624071D01*
X150329663Y-103576452D01*
X150234425Y-103528833D01*
X149996329Y-103528833D01*
X149901091Y-103576452D01*
X149853472Y-103624071D01*
X149805853Y-103719310D01*
X149805853Y-103957405D01*
X149853472Y-104052643D01*
X149901091Y-104100262D01*
X149996329Y-104147881D01*
X150234425Y-104147881D01*
X150329663Y-104100262D01*
X150377282Y-104052643D01*
%LPC*%
D15*
X131500000Y-108750000D03*
D16*
X131500000Y-106210000D03*
X128960000Y-108750000D03*
X128960000Y-106210000D03*
X126420000Y-108750000D03*
X126420000Y-106210000D03*
X123880000Y-108750000D03*
X123880000Y-106210000D03*
D17*
X131750000Y-114000000D03*
D18*
X131750000Y-116500000D03*
D17*
X147750000Y-83500000D03*
D18*
X147750000Y-86000000D03*
D15*
X138750000Y-110250000D03*
D16*
X141290000Y-110250000D03*
X138750000Y-107710000D03*
X141290000Y-107710000D03*
X138750000Y-105170000D03*
X141290000Y-105170000D03*
D19*
X146035000Y-108000000D03*
X147305000Y-108000000D03*
X148575000Y-108000000D03*
X149845000Y-108000000D03*
X151115000Y-108000000D03*
X152375000Y-108000000D03*
X153655000Y-108000000D03*
X154925000Y-108000000D03*
X156195000Y-108000000D03*
X157465000Y-108000000D03*
X157465000Y-116000000D03*
X156195000Y-116000000D03*
X154925000Y-116000000D03*
X153655000Y-116000000D03*
X152385000Y-116000000D03*
X151115000Y-116000000D03*
X149845000Y-116000000D03*
X148575000Y-116000000D03*
X147305000Y-116000000D03*
X146035000Y-116000000D03*
D15*
X157250000Y-122750000D03*
D16*
X157250000Y-120210000D03*
X154710000Y-122750000D03*
X154710000Y-120210000D03*
X152170000Y-122750000D03*
X152170000Y-120210000D03*
D20*
X140000000Y-95040000D03*
X140000000Y-92500000D03*
X140000000Y-89960000D03*
D21*
X161125000Y-92375000D03*
D22*
X161125000Y-94915000D03*
X161125000Y-97455000D03*
X161125000Y-99995000D03*
X161125000Y-102535000D03*
X161125000Y-105075000D03*
X161125000Y-107615000D03*
D23*
X132375000Y-79000000D03*
D24*
X134915000Y-79000000D03*
X137455000Y-79000000D03*
X139995000Y-79000000D03*
X142535000Y-79000000D03*
X145075000Y-79000000D03*
X147615000Y-79000000D03*
D23*
X132375000Y-121000000D03*
D24*
X134915000Y-121000000D03*
X137455000Y-121000000D03*
X139995000Y-121000000D03*
X142535000Y-121000000D03*
X145075000Y-121000000D03*
X147615000Y-121000000D03*
D21*
X119000000Y-92375000D03*
D22*
X119000000Y-94915000D03*
X119000000Y-97455000D03*
X119000000Y-99995000D03*
X119000000Y-102535000D03*
X119000000Y-105075000D03*
X119000000Y-107615000D03*
D25*
X130431000Y-102680000D03*
X132631000Y-102680000D03*
X132703000Y-100150000D03*
X130503000Y-100150000D03*
X132705000Y-97947500D03*
X130505000Y-97947500D03*
D26*
X148224000Y-91843900D03*
X146524000Y-91843900D03*
X148209000Y-94231500D03*
X146509000Y-94231500D03*
X148256000Y-96616500D03*
X146556000Y-96616500D03*
X148331000Y-99001600D03*
X146631000Y-99001600D03*
X148335000Y-101346000D03*
X146635000Y-101346000D03*
X148294000Y-103731000D03*
X146594000Y-103731000D03*
M02*
